<svg width="261" height="25" viewBox="0 0 261 25" fill="none" xmlns="http://www.w3.org/2000/svg">
<path d="M-0.01 13.94C-0.01 11.86 0.44 10.01 1.34 8.39C2.24 6.75 3.49 5.48 5.09 4.58C6.71 3.66 8.54 3.2 10.58 3.2C13.08 3.2 15.22 3.86 17 5.18C18.78 6.5 19.97 8.3 20.57 10.58H14.93C14.51 9.7 13.91 9.03 13.13 8.57C12.37 8.11 11.5 7.88 10.52 7.88C8.94 7.88 7.66 8.43 6.68 9.53C5.7 10.63 5.21 12.1 5.21 13.94C5.21 15.78 5.7 17.25 6.68 18.35C7.66 19.45 8.94 20 10.52 20C11.5 20 12.37 19.77 13.13 19.31C13.91 18.85 14.51 18.18 14.93 17.3H20.57C19.97 19.58 18.78 21.38 17 22.7C15.22 24 13.08 24.65 10.58 24.65C8.54 24.65 6.71 24.2 5.09 23.3C3.49 22.38 2.24 21.11 1.34 19.49C0.44 17.87 -0.01 16.02 -0.01 13.94ZM34.0016 7.58C35.9216 7.58 37.4616 8.22 38.6216 9.5C39.7816 10.76 40.3616 12.5 40.3616 14.72V24.5H35.2616V15.41C35.2616 14.29 34.9716 13.42 34.3916 12.8C33.8116 12.18 33.0316 11.87 32.0516 11.87C31.0716 11.87 30.2916 12.18 29.7116 12.8C29.1316 13.42 28.8416 14.29 28.8416 15.41V24.5H23.7116V2.3H28.8416V10.01C29.3616 9.27 30.0716 8.68 30.9716 8.24C31.8716 7.8 32.8816 7.58 34.0016 7.58ZM42.9064 16.1C42.9064 14.38 43.2264 12.87 43.8664 11.57C44.5264 10.27 45.4164 9.27 46.5364 8.57C47.6564 7.87 48.9064 7.52 50.2864 7.52C51.4664 7.52 52.4964 7.76 53.3764 8.24C54.2764 8.72 54.9664 9.35 55.4464 10.13V7.76H60.5764V24.5H55.4464V22.13C54.9464 22.91 54.2464 23.54 53.3464 24.02C52.4664 24.5 51.4364 24.74 50.2564 24.74C48.8964 24.74 47.6564 24.39 46.5364 23.69C45.4164 22.97 44.5264 21.96 43.8664 20.66C43.2264 19.34 42.9064 17.82 42.9064 16.1ZM55.4464 16.13C55.4464 14.85 55.0864 13.84 54.3664 13.1C53.6664 12.36 52.8064 11.99 51.7864 11.99C50.7664 11.99 49.8964 12.36 49.1764 13.1C48.4764 13.82 48.1264 14.82 48.1264 16.1C48.1264 17.38 48.4764 18.4 49.1764 19.16C49.8964 19.9 50.7664 20.27 51.7864 20.27C52.8064 20.27 53.6664 19.9 54.3664 19.16C55.0864 18.42 55.4464 17.41 55.4464 16.13ZM69.4177 10.55C70.0177 9.63 70.7677 8.91 71.6677 8.39C72.5677 7.85 73.5677 7.58 74.6677 7.58V13.01H73.2577C71.9777 13.01 71.0177 13.29 70.3777 13.85C69.7377 14.39 69.4177 15.35 69.4177 16.73V24.5H64.2877V7.76H69.4177V10.55ZM82.2498 2.3V24.5H77.1198V2.3H82.2498ZM101.747 15.86C101.747 16.34 101.717 16.84 101.657 17.36H90.0474C90.1274 18.4 90.4574 19.2 91.0374 19.76C91.6374 20.3 92.3674 20.57 93.2274 20.57C94.5074 20.57 95.3974 20.03 95.8974 18.95H101.357C101.077 20.05 100.567 21.04 99.8274 21.92C99.1074 22.8 98.1974 23.49 97.0974 23.99C95.9974 24.49 94.7674 24.74 93.4074 24.74C91.7674 24.74 90.3074 24.39 89.0274 23.69C87.7474 22.99 86.7474 21.99 86.0274 20.69C85.3074 19.39 84.9474 17.87 84.9474 16.13C84.9474 14.39 85.2974 12.87 85.9974 11.57C86.7174 10.27 87.7174 9.27 88.9974 8.57C90.2774 7.87 91.7474 7.52 93.4074 7.52C95.0274 7.52 96.4674 7.86 97.7274 8.54C98.9874 9.22 99.9674 10.19 100.667 11.45C101.387 12.71 101.747 14.18 101.747 15.86ZM96.4974 14.51C96.4974 13.63 96.1974 12.93 95.5974 12.41C94.9974 11.89 94.2474 11.63 93.3474 11.63C92.4874 11.63 91.7574 11.88 91.1574 12.38C90.5774 12.88 90.2174 13.59 90.0774 14.51H96.4974ZM111.264 24.74C109.804 24.74 108.504 24.49 107.364 23.99C106.224 23.49 105.324 22.81 104.664 21.95C104.004 21.07 103.634 20.09 103.554 19.01H108.624C108.684 19.59 108.954 20.06 109.434 20.42C109.914 20.78 110.504 20.96 111.204 20.96C111.844 20.96 112.334 20.84 112.674 20.6C113.034 20.34 113.214 20.01 113.214 19.61C113.214 19.13 112.964 18.78 112.464 18.56C111.964 18.32 111.154 18.06 110.034 17.78C108.834 17.5 107.834 17.21 107.034 16.91C106.234 16.59 105.544 16.1 104.964 15.44C104.384 14.76 104.094 13.85 104.094 12.71C104.094 11.75 104.354 10.88 104.874 10.1C105.414 9.3 106.194 8.67 107.214 8.21C108.254 7.75 109.484 7.52 110.904 7.52C113.004 7.52 114.654 8.04 115.854 9.08C117.074 10.12 117.774 11.5 117.954 13.22H113.214C113.134 12.64 112.874 12.18 112.434 11.84C112.014 11.5 111.454 11.33 110.754 11.33C110.154 11.33 109.694 11.45 109.374 11.69C109.054 11.91 108.894 12.22 108.894 12.62C108.894 13.1 109.144 13.46 109.644 13.7C110.164 13.94 110.964 14.18 112.044 14.42C113.284 14.74 114.294 15.06 115.074 15.38C115.854 15.68 116.534 16.18 117.114 16.88C117.714 17.56 118.024 18.48 118.044 19.64C118.044 20.62 117.764 21.5 117.204 22.28C116.664 23.04 115.874 23.64 114.834 24.08C113.814 24.52 112.624 24.74 111.264 24.74ZM139.75 24.5L132.67 15.2V24.5H127.54V3.44H132.67V12.68L139.69 3.44H145.72L137.56 13.76L146.02 24.5H139.75ZM147.438 16.1C147.438 14.38 147.758 12.87 148.398 11.57C149.058 10.27 149.948 9.27 151.068 8.57C152.188 7.87 153.438 7.52 154.818 7.52C155.998 7.52 157.028 7.76 157.908 8.24C158.808 8.72 159.498 9.35 159.978 10.13V7.76H165.108V24.5H159.978V22.13C159.478 22.91 158.778 23.54 157.878 24.02C156.998 24.5 155.968 24.74 154.788 24.74C153.428 24.74 152.188 24.39 151.068 23.69C149.948 22.97 149.058 21.96 148.398 20.66C147.758 19.34 147.438 17.82 147.438 16.1ZM159.978 16.13C159.978 14.85 159.618 13.84 158.898 13.1C158.198 12.36 157.338 11.99 156.318 11.99C155.298 11.99 154.428 12.36 153.708 13.1C153.008 13.82 152.658 14.82 152.658 16.1C152.658 17.38 153.008 18.4 153.708 19.16C154.428 19.9 155.298 20.27 156.318 20.27C157.338 20.27 158.198 19.9 158.898 19.16C159.618 18.42 159.978 17.41 159.978 16.13ZM175.629 24.74C174.169 24.74 172.869 24.49 171.729 23.99C170.589 23.49 169.689 22.81 169.029 21.95C168.369 21.07 167.999 20.09 167.919 19.01H172.989C173.049 19.59 173.319 20.06 173.799 20.42C174.279 20.78 174.869 20.96 175.569 20.96C176.209 20.96 176.699 20.84 177.039 20.6C177.399 20.34 177.579 20.01 177.579 19.61C177.579 19.13 177.329 18.78 176.829 18.56C176.329 18.32 175.519 18.06 174.399 17.78C173.199 17.5 172.199 17.21 171.399 16.91C170.599 16.59 169.909 16.1 169.329 15.44C168.749 14.76 168.459 13.85 168.459 12.71C168.459 11.75 168.719 10.88 169.239 10.1C169.779 9.3 170.559 8.67 171.579 8.21C172.619 7.75 173.849 7.52 175.269 7.52C177.369 7.52 179.019 8.04 180.219 9.08C181.439 10.12 182.139 11.5 182.319 13.22H177.579C177.499 12.64 177.239 12.18 176.799 11.84C176.379 11.5 175.819 11.33 175.119 11.33C174.519 11.33 174.059 11.45 173.739 11.69C173.419 11.91 173.259 12.22 173.259 12.62C173.259 13.1 173.509 13.46 174.009 13.7C174.529 13.94 175.329 14.18 176.409 14.42C177.649 14.74 178.659 15.06 179.439 15.38C180.219 15.68 180.899 16.18 181.479 16.88C182.079 17.56 182.389 18.48 182.409 19.64C182.409 20.62 182.129 21.5 181.569 22.28C181.029 23.04 180.239 23.64 179.199 24.08C178.179 24.52 176.989 24.74 175.629 24.74ZM184.528 16.1C184.528 14.38 184.848 12.87 185.488 11.57C186.148 10.27 187.038 9.27 188.158 8.57C189.278 7.87 190.528 7.52 191.908 7.52C193.088 7.52 194.118 7.76 194.998 8.24C195.898 8.72 196.588 9.35 197.068 10.13V7.76H202.198V24.5H197.068V22.13C196.568 22.91 195.868 23.54 194.968 24.02C194.088 24.5 193.058 24.74 191.878 24.74C190.518 24.74 189.278 24.39 188.158 23.69C187.038 22.97 186.148 21.96 185.488 20.66C184.848 19.34 184.528 17.82 184.528 16.1ZM197.068 16.13C197.068 14.85 196.708 13.84 195.988 13.1C195.288 12.36 194.428 11.99 193.408 11.99C192.388 11.99 191.518 12.36 190.798 13.1C190.098 13.82 189.748 14.82 189.748 16.1C189.748 17.38 190.098 18.4 190.798 19.16C191.518 19.9 192.388 20.27 193.408 20.27C194.428 20.27 195.288 19.9 195.988 19.16C196.708 18.42 197.068 17.41 197.068 16.13ZM212.719 24.74C211.259 24.74 209.959 24.49 208.819 23.99C207.679 23.49 206.779 22.81 206.119 21.95C205.459 21.07 205.089 20.09 205.009 19.01H210.079C210.139 19.59 210.409 20.06 210.889 20.42C211.369 20.78 211.959 20.96 212.659 20.96C213.299 20.96 213.789 20.84 214.129 20.6C214.489 20.34 214.669 20.01 214.669 19.61C214.669 19.13 214.419 18.78 213.919 18.56C213.419 18.32 212.609 18.06 211.489 17.78C210.289 17.5 209.289 17.21 208.489 16.91C207.689 16.59 206.999 16.1 206.419 15.44C205.839 14.76 205.549 13.85 205.549 12.71C205.549 11.75 205.809 10.88 206.329 10.1C206.869 9.3 207.649 8.67 208.669 8.21C209.709 7.75 210.939 7.52 212.359 7.52C214.459 7.52 216.109 8.04 217.309 9.08C218.529 10.12 219.229 11.5 219.409 13.22H214.669C214.589 12.64 214.329 12.18 213.889 11.84C213.469 11.5 212.909 11.33 212.209 11.33C211.609 11.33 211.149 11.45 210.829 11.69C210.509 11.91 210.349 12.22 210.349 12.62C210.349 13.1 210.599 13.46 211.099 13.7C211.619 13.94 212.419 14.18 213.499 14.42C214.739 14.74 215.749 15.06 216.529 15.38C217.309 15.68 217.989 16.18 218.569 16.88C219.169 17.56 219.479 18.48 219.499 19.64C219.499 20.62 219.219 21.5 218.659 22.28C218.119 23.04 217.329 23.64 216.289 24.08C215.269 24.52 214.079 24.74 212.719 24.74ZM225.217 6.02C224.317 6.02 223.577 5.76 222.997 5.24C222.437 4.7 222.157 4.04 222.157 3.26C222.157 2.46 222.437 1.8 222.997 1.28C223.577 0.739998 224.317 0.469998 225.217 0.469998C226.097 0.469998 226.817 0.739998 227.377 1.28C227.957 1.8 228.247 2.46 228.247 3.26C228.247 4.04 227.957 4.7 227.377 5.24C226.817 5.76 226.097 6.02 225.217 6.02ZM227.767 7.76V24.5H222.637V7.76H227.767ZM236.615 10.55C237.215 9.63 237.965 8.91 238.865 8.39C239.765 7.85 240.765 7.58 241.865 7.58V13.01H240.455C239.175 13.01 238.215 13.29 237.575 13.85C236.935 14.39 236.615 15.35 236.615 16.73V24.5H231.485V7.76H236.615V10.55ZM243.297 16.1C243.297 14.38 243.617 12.87 244.257 11.57C244.917 10.27 245.807 9.27 246.927 8.57C248.047 7.87 249.297 7.52 250.677 7.52C251.857 7.52 252.887 7.76 253.767 8.24C254.667 8.72 255.357 9.35 255.837 10.13V7.76H260.967V24.5H255.837V22.13C255.337 22.91 254.637 23.54 253.737 24.02C252.857 24.5 251.827 24.74 250.647 24.74C249.287 24.74 248.047 24.39 246.927 23.69C245.807 22.97 244.917 21.96 244.257 20.66C243.617 19.34 243.297 17.82 243.297 16.1ZM255.837 16.13C255.837 14.85 255.477 13.84 254.757 13.1C254.057 12.36 253.197 11.99 252.177 11.99C251.157 11.99 250.287 12.36 249.567 13.1C248.867 13.82 248.517 14.82 248.517 16.1C248.517 17.38 248.867 18.4 249.567 19.16C250.287 19.9 251.157 20.27 252.177 20.27C253.197 20.27 254.057 19.9 254.757 19.16C255.477 18.42 255.837 17.41 255.837 16.13Z" fill="#EDA751"/>
</svg>
